<svg width="1920" height="756" viewBox="0 0 1920 756" fill="none" xmlns="http://www.w3.org/2000/svg">
<mask id="mask0_3_45" style="mask-type:alpha" maskUnits="userSpaceOnUse" x="0" y="0" width="1920" height="756">
<rect width="1920" height="756" fill="#F8F8F8"/>
</mask>
<g mask="url(#mask0_3_45)">
<g opacity="0.5">
<path d="M1274.74 382.293C1386.52 382.73 1496.07 391.579 1607.4 395.392C1719.18 399.19 1829.11 391.943 1940.09 386.165C2025.88 412.1 2095.13 461.131 2195.08 470.46C2255.39 476.093 2273.46 504.924 2306.53 526.667C2344.54 551.641 2400.96 570.357 2450.11 590.413H528C652.456 555.726 776.912 521.04 901.368 486.353C963.006 469.078 1021.97 453.52 1074.05 429.972C1099.04 418.678 1121.68 406.22 1152.8 398.477C1190.65 389.061 1234.06 388.246 1274.74 382.293Z" stroke="#4A3AFF" stroke-miterlimit="10"/>
<path d="M605.352 568.858H2397.33" stroke="#4A3AFF" stroke-miterlimit="10"/>
<path d="M672.889 550.025H2351.15" stroke="#4A3AFF" stroke-miterlimit="10"/>
<path d="M732.352 533.449C875.687 533.449 1014.09 536.112 1156.49 543.433C1283.31 549.953 1396.99 543.738 1521.44 532.648C1641.99 521.893 1764.18 523.916 1886.4 521.66C2027.98 518.887 2169.82 521.437 2310.53 529.286" stroke="#4A3AFF" stroke-miterlimit="10"/>
<path d="M785.141 518.749C852.275 518.749 919.968 517.047 986.264 522.854C1053.74 528.762 1118.51 539.823 1185.34 546.998C1319.42 561.392 1409.13 541.06 1529.8 515.591C1636.55 493.077 1742.6 494.678 1857.02 489.787C2006.51 483.398 2128.69 483.326 2274.51 502.682" stroke="#4A3AFF" stroke-miterlimit="10"/>
<path d="M832.309 505.593C901.648 505.593 964.621 506.539 1031.69 516.115C1091.9 524.731 1149.91 536.723 1211.24 543.636C1340.41 558.19 1428.82 527.467 1537.28 499.524C1636.09 474.055 1737.22 476.733 1846.28 470.94C1987.87 463.43 2104.97 458.904 2242.25 480.749" stroke="#4A3AFF" stroke-miterlimit="10"/>
<path d="M874.695 493.79C999.866 494.095 1112.09 515.97 1234.37 524.134C1349.76 531.819 1440.09 507.281 1543.99 488.099C1640 470.387 1735.14 471.77 1836.47 467.884C1965.52 462.907 2085.63 457.696 2213.31 471.522" stroke="#4A3AFF" stroke-miterlimit="10"/>
<path d="M913.043 483.093C1028.21 484.548 1140.56 497.195 1255.45 499.538C1357.64 501.62 1451.23 488.798 1550.1 479.163C1641.86 470.285 1734.46 471.988 1827.65 470.067C1947.82 467.607 2067.21 463.954 2187.17 469.922" stroke="#4A3AFF" stroke-miterlimit="10"/>
<path d="M947.791 473.24C1152.05 474.491 1351.47 477.606 1555.57 471.784C1756.41 466.167 1962.35 467.578 2163.38 469.441" stroke="#4A3AFF" stroke-miterlimit="10"/>
<path d="M979.494 464.625C1366.9 464.536 1754.3 464.536 2141.7 464.625" stroke="#4A3AFF" stroke-miterlimit="10"/>
<path d="M1008.56 456.168C1194.12 453.694 1379.6 452.806 1565.23 451.642C1750.85 450.478 1936.11 456.518 2121.86 456.518" stroke="#4A3AFF" stroke-miterlimit="10"/>
<path d="M1035.26 446.665C1213.16 439.984 1391.09 437.932 1569.35 435.196C1749.46 432.431 1924.15 449.124 2103.45 449.037" stroke="#4A3AFF" stroke-miterlimit="10"/>
<path d="M1059.92 436.375C1230.33 425.533 1401.68 422.855 1573.36 418.46C1750.17 413.933 1911.83 440.858 2086.8 442.168" stroke="#4A3AFF" stroke-miterlimit="10"/>
<path d="M1082.71 425.955C1245.52 411.983 1411.86 408.941 1576.96 403.455C1655.49 400.85 1728.37 401.272 1805.57 409.96C1894.53 419.988 1979.24 433.13 2071.22 435.822" stroke="#4A3AFF" stroke-miterlimit="10"/>
<path d="M1103.86 416.087C1259.37 400.413 1421.8 397.735 1580.32 391.491C1653.76 388.581 1720.58 388.508 1792.09 397.502C1881.15 408.709 1964.34 424.805 2056.78 429.71" stroke="#4A3AFF" stroke-miterlimit="10"/>
<path d="M1123.54 407.486C1272.19 391.681 1431.36 389.352 1583.45 383.196C1649.84 380.503 1713.87 379.79 1779.08 387.838C1868.7 398.928 1950.95 417.368 2043.43 423.874" stroke="#4A3AFF" stroke-miterlimit="10"/>
<path d="M1141.9 400.937C1286.04 387.009 1439.47 385.175 1586.34 379.586C1747.81 373.43 1875.37 404.677 2030.79 417.935" stroke="#4A3AFF" stroke-miterlimit="10"/>
<path d="M1159.07 396.338C1299.49 384.942 1446.73 383.851 1589.08 379.572C1742.5 375.016 1870.56 399.758 2019.05 412.449" stroke="#4A3AFF" stroke-miterlimit="10"/>
<path d="M1175.15 393.238C1312.03 384.505 1453.53 384.505 1591.62 381.74C1737.07 378.829 1865.87 397.022 2008.09 407.733" stroke="#4A3AFF" stroke-miterlimit="10"/>
<path d="M1190.28 391.215C1323.8 384.913 1459.93 386.209 1593.95 385.001C1731.98 383.763 1861.31 395.727 1997.63 403.76" stroke="#4A3AFF" stroke-miterlimit="10"/>
<path d="M1204.47 389.905C1465.74 381.653 1728 390.196 1988.06 400.456" stroke="#4A3AFF" stroke-miterlimit="10"/>
<path d="M1217.88 388.988C1470.3 384.316 1726.64 392.874 1978.9 397.72" stroke="#4A3AFF" stroke-miterlimit="10"/>
<path d="M1230.52 388.188C1476.63 386.237 1723.71 395.348 1970.27 395.232" stroke="#4A3AFF" stroke-miterlimit="10"/>
<path d="M1242.47 387.285C1362.95 387.213 1482.13 393.354 1602.27 396.483C1722.41 399.612 1842.46 395.159 1962.1 393.005" stroke="#4A3AFF" stroke-miterlimit="10"/>
<path d="M1253.78 386.077C1371.31 386.456 1487.04 393.689 1604.07 397.269C1721.11 400.849 1837.86 394.62 1954.37 390.807" stroke="#4A3AFF" stroke-miterlimit="10"/>
<path d="M1264.52 384.433C1379.19 384.957 1491.63 393.063 1605.78 396.876C1719.93 400.689 1833.39 393.572 1947.04 388.537" stroke="#4A3AFF" stroke-miterlimit="10"/>
<path d="M1914.47 387.387C1964.15 401.461 1998.93 417.499 2038.46 437.321C2053.36 444.802 2069.23 454.102 2087.06 460.083C2114.38 469.252 2113.08 465.424 2145.34 466.807C2203.66 469.281 2214.31 494.081 2239.71 516.727C2273.21 546.62 2324.97 567.33 2376.33 590.412" stroke="#4A3AFF" stroke-miterlimit="10"/>
<path d="M1888.88 388.77C1935.61 400.689 1962.04 411.124 1994.02 431.485C2008.06 440.406 2022.16 451.467 2040.35 458.73C2067.03 469.368 2067.06 462.732 2095.56 465.031C2123.32 467.258 2114.41 459.53 2139.66 471.246C2163.75 482.438 2171.55 503.686 2185.36 517.818C2214.15 547.217 2255.6 566.937 2302.24 590.427" stroke="#4A3AFF" stroke-miterlimit="10"/>
<path d="M1863.23 390.167C1915.09 401.577 1930.92 407.85 1961.35 432.155C1973.46 443.07 1987.88 453.388 2004.39 462.95C2017.21 470.644 2030.99 471.193 2045.75 464.595C2061.13 457.483 2074.92 458.342 2087.11 467.171C2103.89 485.242 2118.3 503.774 2130.28 522.665C2152.79 549.778 2189.55 568.261 2228.4 590.412" stroke="#4A3AFF" stroke-miterlimit="10"/>
<path d="M1837.71 391.549C1853.17 394.12 1869.11 396.025 1885.31 397.24C1904.26 408.01 1918.72 420.352 1927.94 433.624C1937.58 445.619 1950.89 456.895 1967.44 467.098C1978.66 469.601 1988.21 468.917 1996.07 465.046C2003.86 461.32 2013.39 460.408 2024.67 462.31C2043.65 478.306 2056.99 495.635 2064.17 513.627C2084.63 544.466 2115.06 564.492 2154.41 590.34" stroke="#4A3AFF" stroke-miterlimit="10"/>
<path d="M1812.12 392.874C1826.33 394.01 1840.79 394.299 1855.16 393.733C1872.92 406.971 1885.87 421.499 1893.48 436.724C1899.5 444.03 1905.5 451.336 1911.49 458.642C1917.95 469.878 1929.55 472.406 1946.3 466.225C1958.72 460.151 1967.4 460.806 1972.35 468.19C1989.9 478.55 1999.35 491.418 1999.12 504.647C2018.31 538.121 2042.81 561.203 2080.47 590.412" stroke="#4A3AFF" stroke-miterlimit="10"/>
<path d="M1786.53 394.082C1799.12 394.296 1811.52 392.568 1821.81 389.163C1841.93 409.465 1843.54 439.752 1867.98 458.031C1908.63 488.332 1885.81 452.341 1910.71 464.711C1946.2 482.336 1940.12 516.916 1955.18 538.324C1967.91 556.444 1988.56 573.399 2006.54 590.412" stroke="#4A3AFF" stroke-miterlimit="10"/>
<path d="M1760.95 395.115C1772.32 393.065 1782.44 389.742 1790.45 385.437C1800.48 401.446 1805.97 453.199 1828.86 464.537C1843.17 471.668 1848.76 464.537 1858.73 469.776C1880.9 481.419 1884.01 520.86 1889.78 532.226C1899.87 552.31 1916.86 571.216 1932.7 590.441" stroke="#4A3AFF" stroke-miterlimit="10"/>
<path d="M1735.36 395.945C1743.37 391.579 1750.89 387.212 1758.18 382.541C1766.19 404.881 1758.8 441.163 1783.02 458.933C1779.01 465.958 1782.11 469.587 1792.34 469.82C1796.92 470.297 1801.59 470.58 1806.28 470.664C1822.49 486.033 1820.22 508.504 1825.5 524.964C1832.77 547.61 1845.66 568.451 1858.67 590.456" stroke="#4A3AFF" stroke-miterlimit="10"/>
<path d="M1709.77 396.512C1715.21 390.989 1719.85 385.301 1723.65 379.484C1739.18 451.671 1758.71 518.124 1784.76 590.412" stroke="#4A3AFF" stroke-miterlimit="10"/>
<path d="M1684.16 396.847C1686.23 390.589 1687.88 384.307 1689.12 378C1694.53 449.081 1701.73 519.39 1710.86 590.485" stroke="#4A3AFF" stroke-miterlimit="10"/>
<path d="M1658.57 396.629C1656.89 390.468 1655.56 384.297 1654.56 378.116C1650.15 448.979 1644.29 519.565 1636.93 590.412" stroke="#4A3AFF" stroke-miterlimit="10"/>
<path d="M1632.98 396.119C1627.77 390.552 1623.44 384.812 1620.03 378.946C1605.69 449.968 1586.87 519.798 1562.99 590.412" stroke="#4A3AFF" stroke-miterlimit="10"/>
<path d="M1607.39 395.392C1599.18 390.639 1591.84 385.566 1585.47 380.227C1561.01 451.014 1528.83 521.168 1489.05 590.412" stroke="#4A3AFF" stroke-miterlimit="10"/>
<path d="M1581.81 394.344C1569.41 391.309 1559.38 386.516 1553.15 380.649C1527.1 422.724 1514.95 465.759 1486.88 507.747C1468 535.996 1437.45 562.542 1415.12 590.412" stroke="#4A3AFF" stroke-miterlimit="10"/>
<path d="M1556.22 393.165C1548.97 392.686 1542.06 391.413 1536.06 389.448C1530.05 387.483 1525.12 384.882 1521.66 381.857C1478.19 422.782 1465.46 475.437 1434.72 519.434C1413.97 549.109 1415.93 529.359 1391.24 545.136C1370.22 558.554 1356.34 575.567 1341 590.412" stroke="#4A3AFF" stroke-miterlimit="10"/>
<path d="M1530.63 391.855C1522.72 391.851 1514.89 391.087 1507.62 389.611C1500.36 388.134 1493.82 385.975 1488.4 383.268C1433.69 426.464 1419.75 483.428 1381.93 530.451C1351.53 568.291 1370.75 538.295 1328.7 545.747C1308.58 549.313 1276.23 583.281 1267.22 590.412" stroke="#4A3AFF" stroke-miterlimit="10"/>
<path d="M1505.04 390.458C1496.78 391.195 1488.26 391.037 1480.14 389.998C1472.02 388.959 1464.51 387.066 1458.19 384.462C1433.78 394.009 1419.8 406.525 1416.24 422.011C1395.12 450.565 1369.66 477.824 1349.2 506.51C1341.16 520.336 1331.76 533.963 1321 547.391C1308.93 556.405 1295.98 556.779 1282.15 548.512C1261.45 543.292 1247.46 546.834 1240.17 559.136L1193.35 590.412" stroke="#4A3AFF" stroke-miterlimit="10"/>
<path d="M1479.46 389.032C1470.96 390.292 1461.97 390.634 1453.15 390.032C1444.33 389.43 1435.91 387.898 1428.54 385.553C1402.62 391.54 1387.34 401.664 1382.7 415.927C1354.76 446.694 1322.46 476.558 1299.42 508.169C1292.68 523.926 1278.77 538.818 1258.65 551.83C1251.06 552.28 1243.36 551.976 1236.04 550.938C1228.72 549.899 1221.95 548.151 1216.17 545.805C1174.5 547.668 1144.13 576.106 1119.41 590.383" stroke="#4A3AFF" stroke-miterlimit="10"/>
<path d="M1453.84 387.635C1426.95 393.267 1410.77 384.229 1386.71 389.337C1360.66 394.882 1350.35 411.692 1338.45 423.044C1308.55 451.38 1276.35 478.101 1249.74 507.136C1238.44 519.419 1229.46 544.539 1195.18 547.595C1181.21 548.832 1163.82 542.167 1149.41 543.389C1111.18 546.664 1070.23 577.838 1045.54 590.412" stroke="#4A3AFF" stroke-miterlimit="10"/>
<path d="M1428.26 386.281C1401.96 392.452 1382.27 385.335 1357.09 389.192C1323.21 394.402 1308.83 414.763 1293.27 428.603C1263.87 454.684 1228.44 478.479 1199.9 504.851C1186.46 517.294 1172.26 534.249 1142.27 538.936C1126.34 541.424 1110.41 538.936 1094.2 540.973C1047.06 547.013 1006.35 574.549 971.576 590.456" stroke="#4A3AFF" stroke-miterlimit="10"/>
<path d="M1402.67 385.058C1371.83 392.699 1344.07 383.414 1313.74 390.603C1289.45 396.425 1273.37 412.914 1260.48 423.16C1226.6 450.099 1187.26 475.001 1150.15 500.95C1108.67 529.97 1084.95 525.284 1026.75 539.416C979.09 550.957 937.573 573.952 897.641 590.354" stroke="#4A3AFF" stroke-miterlimit="10"/>
<path d="M1377.08 383.996C1346.03 391.025 1313.89 383.749 1284.21 390.007C1250.92 397.022 1234.03 415.854 1215.09 429.127C1180.65 453.199 1140.16 474.913 1100.41 497.137C1062.71 518.211 1020.61 521.66 972.415 535.108C919.626 549.836 871.62 572.395 823.707 590.412" stroke="#4A3AFF" stroke-miterlimit="10"/>
<path d="M1351.5 383.152C1320.1 387.707 1284.64 384.607 1255.02 390.21C1221.48 396.629 1203.47 413.176 1182.92 425.955C1143.26 450.696 1099.57 472.017 1050.64 492.756C1007.41 511.065 951.89 521.034 904.474 536.898C852.369 554.363 801.32 572.584 749.773 590.412" stroke="#4A3AFF" stroke-miterlimit="10"/>
<path d="M1326.03 382.555C1293.37 387.431 1257.72 385.466 1226.26 391.156C1187.08 398.331 1162.27 418.125 1137.02 432.518C1098.55 454.494 1050.63 473.123 1001.01 489.482C895.157 524.411 783.121 556.109 675.992 590.412" stroke="#4A3AFF" stroke-miterlimit="10"/>
<path d="M1300.32 382.293C1266.75 387.3 1229.96 386.66 1197.51 392.598C1157.61 399.947 1133.14 416.64 1105.25 430.859C1060.07 453.884 1007.29 470.402 951.112 487.008C834.647 521.423 718.254 555.891 601.934 590.413" stroke="#4A3AFF" stroke-miterlimit="10"/>
</g>
</g>
</svg>
