<svg width="123" height="42" viewBox="0 0 123 42" fill="none" xmlns="http://www.w3.org/2000/svg">
<g clip-path="url(#clip0_13_506)">
<path d="M0.824707 20C0.824707 20 0.824707 13.653 0.824707 0.958936C0.824707 0.958936 2.00349 0.958936 4.36108 0.958936C4.36108 0.958936 4.36108 7.30596 4.36108 20C4.36108 20 3.1823 20 0.824707 20ZM8.53879 20C8.53879 20 8.53879 13.653 8.53879 0.958936C8.53879 0.958936 10.1539 0.958936 13.384 0.958936C13.384 0.958936 15.0956 5.7664 18.5187 15.3813C18.5187 15.3813 20.2093 10.5739 23.5904 0.958936C23.5904 0.958936 25.2055 0.958936 28.4357 0.958936C28.4357 0.958936 28.4357 7.30596 28.4357 20C28.4357 20 27.2611 20 24.9119 20C24.9119 20 24.9119 15.2387 24.9119 5.71606C24.9119 5.71606 23.2548 10.4774 19.9408 20C19.9408 20 18.976 20 17.0463 20C17.0463 20 15.3892 15.2387 12.0752 5.71606C12.0752 5.71606 12.0752 10.4774 12.0752 20C12.0752 20 10.8964 20 8.53879 20ZM31.2794 14.5633C31.2794 14.5633 32.5085 14.5633 34.9668 14.5633C35.1178 16.1406 35.9778 16.9293 37.5467 16.9293C38.3102 16.9293 38.9268 16.7153 39.3967 16.2874C39.8749 15.8595 40.114 15.3016 40.114 14.6136C40.114 13.7662 39.7994 13.1034 39.1701 12.6252C38.8849 12.4155 38.587 12.2435 38.2766 12.1092C37.9746 11.975 37.1985 11.6771 35.9484 11.2157C34.6647 10.7375 33.6789 10.0537 32.9909 9.16434C32.3113 8.27501 31.9715 7.23045 31.9715 6.03068C31.9715 4.52049 32.5085 3.24101 33.5824 2.19227C34.6563 1.14352 35.9694 0.619141 37.5215 0.619141C38.436 0.619141 39.296 0.812111 40.1014 1.19805C40.9069 1.5756 41.5655 2.10417 42.0773 2.78376C42.4213 3.2536 42.6772 3.74022 42.845 4.24362C43.0211 4.73863 43.126 5.33432 43.1596 6.03068H39.4974C39.447 5.39305 39.2457 4.89804 38.8933 4.54566C38.5409 4.19328 38.0711 4.01709 37.4838 4.01709C36.9048 4.01709 36.435 4.19747 36.0742 4.55824C35.7135 4.91901 35.5331 5.38466 35.5331 5.95517C35.5331 6.66832 35.9022 7.25143 36.6406 7.70449C36.8 7.81356 37.4879 8.09043 38.7045 8.5351C39.6526 8.89586 40.3322 9.18951 40.7433 9.41604C41.1628 9.63418 41.5571 9.91525 41.9263 10.2592C43.0589 11.2912 43.6252 12.6126 43.6252 14.2235C43.6252 15.9434 43.0379 17.3949 41.8633 18.5779C40.6971 19.7525 39.2582 20.3398 37.5467 20.3398C36.4979 20.3398 35.5205 20.1258 34.6144 19.698C33.7167 19.2701 32.9909 18.6744 32.4372 17.9109C32.068 17.4075 31.7953 16.9041 31.6192 16.4007C31.443 15.8973 31.3297 15.2848 31.2794 14.5633ZM51.9434 20C51.9434 20 49.4683 13.653 44.5183 0.958936C44.5183 0.958936 45.7558 0.958936 48.2308 0.958936C48.2308 0.958936 49.9424 5.78738 53.3655 15.4442C53.3655 15.4442 55.0729 10.6158 58.4876 0.958936C58.4876 0.958936 59.7251 0.958936 62.2001 0.958936C62.2001 0.958936 59.7419 7.30596 54.8254 20C54.8254 20 53.8647 20 51.9434 20ZM77.1884 14.6891C77.1884 14.6891 78.5727 14.6891 81.3414 14.6891C80.5947 16.4259 79.4285 17.8018 77.8428 18.817C76.2655 19.8322 74.4994 20.3398 72.5445 20.3398C71.63 20.3398 70.7365 20.2223 69.8639 19.9874C68.9997 19.7525 68.2027 19.4211 67.4727 18.9932C66.7428 18.5653 66.0674 18.0493 65.4466 17.4452C64.8341 16.8328 64.3139 16.1658 63.886 15.4442C63.4581 14.7143 63.1225 13.9215 62.8792 13.0657C62.6443 12.2015 62.5269 11.3164 62.5269 10.4102C62.5269 9.08464 62.7869 7.81775 63.3071 6.60959C63.8273 5.40144 64.5237 4.36108 65.3962 3.48852C66.2688 2.61596 67.3091 1.91959 68.5173 1.39941C69.7255 0.879231 70.9923 0.619141 72.318 0.619141C73.5177 0.619141 74.6714 0.820501 75.7788 1.22322C76.8947 1.61755 77.8973 2.18807 78.7866 2.93478C79.3907 3.45496 79.8773 3.96675 80.2465 4.47015C80.6157 4.97355 80.9806 5.62377 81.3414 6.42082H77.3897C76.7437 5.58182 76.0263 4.97355 75.2377 4.596C74.449 4.21006 73.501 4.01709 72.3935 4.01709C70.405 4.01709 68.8235 4.71346 67.6489 6.10619C67.1623 6.66832 66.7764 7.33533 66.4911 8.10721C66.2143 8.87908 66.0758 9.65516 66.0758 10.4354C66.0758 11.6016 66.3611 12.6839 66.9316 13.6823C67.5021 14.6807 68.2782 15.4736 69.2598 16.0609C70.2414 16.6398 71.3112 16.9293 72.469 16.9293C73.3835 16.9293 74.2015 16.7573 74.9231 16.4133C75.653 16.0693 76.4081 15.4946 77.1884 14.6891ZM84.4368 20C84.4368 20 84.4368 18.9009 84.4368 16.7027C84.4368 16.7027 85.5778 16.7027 87.8599 16.7027C87.8599 16.7027 87.8599 17.8018 87.8599 20C87.8599 20 86.7189 20 84.4368 20ZM92.1131 20C92.1131 20 92.1131 13.653 92.1131 0.958936C92.1131 0.958936 93.9463 0.958936 97.6128 0.958936C98.9636 0.958936 100.033 1.0722 100.822 1.29873C101.611 1.51687 102.32 1.90701 102.949 2.46914C104.199 3.59339 104.824 5.12457 104.824 7.06265C104.824 9.00913 104.136 10.5361 102.76 11.6436C102.366 11.9624 101.959 12.2183 101.539 12.4113C101.128 12.5958 100.566 12.7804 99.8529 12.965L105 20H100.646C100.646 20 98.9803 17.5669 95.6495 12.7007C95.6495 12.7007 95.6495 15.1338 95.6495 20C95.6495 20 94.4707 20 92.1131 20ZM95.6495 10.0453C95.6495 10.0453 96.2242 10.0453 97.3736 10.0453C98.7412 10.0453 99.7312 9.81876 100.344 9.3657C100.956 8.90425 101.263 8.17013 101.263 7.16333C101.263 6.1817 100.939 5.44339 100.293 4.94838C99.7648 4.53727 98.7412 4.33171 97.2226 4.33171H95.6495C95.6495 4.33171 95.6495 6.23624 95.6495 10.0453ZM108.184 0.958936C108.184 0.958936 109.363 0.958936 111.72 0.958936C111.72 0.958936 111.72 4.97774 111.72 13.0153C111.72 13.7285 111.749 14.2696 111.808 14.6388C111.875 14.9996 112.001 15.3352 112.186 15.6456C112.429 16.0483 112.765 16.3629 113.193 16.5895C113.62 16.816 114.09 16.9293 114.602 16.9293C115.131 16.9293 115.609 16.816 116.037 16.5895C116.473 16.3629 116.813 16.0483 117.056 15.6456C117.241 15.3352 117.362 14.9996 117.421 14.6388C117.488 14.2696 117.522 13.7285 117.522 13.0153V0.958936H121.046V13.0153C121.046 14.1564 120.937 15.117 120.718 15.8973C120.509 16.6692 120.165 17.3655 119.686 17.9864C119.108 18.7247 118.365 19.3036 117.459 19.7231C116.561 20.1342 115.609 20.3398 114.602 20.3398C113.461 20.3398 112.4 20.0755 111.418 19.5469C110.445 19.01 109.686 18.2842 109.14 17.3697C108.503 16.2874 108.184 14.836 108.184 13.0153V0.958936Z" fill="#BDBDBD"/>
<path d="M8.30606 28.2894C8.30606 28.2894 8.65444 28.2894 9.35118 28.2894C9.35118 28.2894 9.35118 31.7571 9.35118 38.6925C9.35118 38.6925 9.00281 38.6925 8.30606 38.6925C8.30606 38.6925 8.30606 35.7405 8.30606 29.8365C8.30606 29.8365 6.24104 32.7885 2.11099 38.6925C2.11099 38.6925 1.76491 38.6925 1.07275 38.6925C1.07275 38.6925 1.07275 35.2248 1.07275 28.2894C1.07275 28.2894 1.41883 28.2894 2.11099 28.2894C2.11099 28.2894 2.11099 31.2414 2.11099 37.1454C2.11099 37.1454 4.17602 34.1934 8.30606 28.2894ZM18.0146 38.6925C18.0146 38.6925 17.6663 38.6925 16.9695 38.6925C16.9695 38.6925 16.9695 37.5419 16.9695 35.2408C16.9695 35.2408 15.4316 35.2408 12.3559 35.2408C12.3559 35.2408 12.3559 36.3914 12.3559 38.6925C12.3559 38.6925 12.0075 38.6925 11.3107 38.6925C11.3107 38.6925 11.3107 36.1255 11.3107 30.9916C11.3107 30.9916 11.6591 30.9916 12.3559 30.9916C12.3559 30.9916 12.3559 32.094 12.3559 34.2989C12.3559 34.2989 13.8937 34.2989 16.9695 34.2989C16.9695 34.2989 16.9695 33.1964 16.9695 30.9916C16.9695 30.9916 17.3179 30.9916 18.0146 30.9916C18.0146 30.9916 18.0146 33.5586 18.0146 38.6925ZM23.3158 30.9916C23.3158 30.9916 23.6642 30.9916 24.361 30.9916C24.361 30.9916 24.361 32.1559 24.361 34.4845C24.361 34.4845 25.374 33.3202 27.4001 30.9916C27.4001 30.9916 27.8355 30.9916 28.7065 30.9916C28.7065 30.9916 27.6086 32.2407 25.413 34.7389C25.413 34.7389 26.5108 36.0568 28.7065 38.6925C28.7065 38.6925 28.271 38.6925 27.4001 38.6925C27.4001 38.6925 26.387 37.4617 24.361 35.0002C24.361 35.0002 24.361 36.231 24.361 38.6925C24.361 38.6925 24.0126 38.6925 23.3158 38.6925C23.3158 38.6925 23.3158 37.4617 23.3158 35.0002C23.3158 35.0002 22.3028 36.231 20.2768 38.6925C20.2768 38.6925 19.839 38.6925 18.9635 38.6925C18.9635 38.6925 20.0613 37.3746 22.257 34.7389C22.257 34.7389 21.1591 33.4898 18.9635 30.9916C18.9635 30.9916 19.4012 30.9916 20.2768 30.9916C20.2768 30.9916 21.2898 32.1559 23.3158 34.4845C23.3158 34.4845 23.3158 33.3202 23.3158 30.9916ZM29.8547 38.6925C29.8547 38.6925 29.8547 35.2248 29.8547 28.2894C29.8547 28.2894 30.3933 28.2894 31.4705 28.2894C31.4705 28.2894 32.7334 31.2414 35.2591 37.1454C35.2591 37.1454 36.5173 34.1934 39.0339 28.2894C39.0339 28.2894 39.5725 28.2894 40.6497 28.2894C40.6497 28.2894 40.6497 31.7571 40.6497 38.6925C40.6497 38.6925 40.3036 38.6925 39.6114 38.6925C39.6114 38.6925 39.6114 35.603 39.6114 29.4239C39.6114 29.4239 38.3073 32.5135 35.6991 38.6925C35.6991 38.6925 35.3966 38.6925 34.7915 38.6925C34.7915 38.6925 33.492 35.603 30.8929 29.4239C30.8929 29.4239 30.8929 32.5135 30.8929 38.6925C30.8929 38.6925 30.5469 38.6925 29.8547 38.6925ZM50.5645 30.9916C50.5645 30.9916 50.5645 33.5586 50.5645 38.6925C50.5645 38.6925 50.2162 38.6925 49.5194 38.6925C49.5194 38.6925 49.5194 38.241 49.5194 37.338C49.1115 37.888 48.6783 38.2822 48.2199 38.5206C47.7661 38.7589 47.2137 38.8781 46.5628 38.8781C45.779 38.8781 45.0708 38.7062 44.4382 38.3624C43.8102 38.0141 43.3175 37.5351 42.9599 36.9254C42.6024 36.3112 42.4236 35.6236 42.4236 34.8627C42.4236 34.1018 42.6001 33.4119 42.9531 32.7931C43.306 32.1743 43.7919 31.6884 44.4107 31.3354C45.0295 30.9824 45.7194 30.806 46.4803 30.806C47.1541 30.806 47.7317 30.9297 48.213 31.1773C48.6989 31.4202 49.1344 31.8121 49.5194 32.353V30.9916H50.5645ZM46.4666 31.7617C45.6415 31.7617 44.9379 32.0597 44.3557 32.6556C43.7736 33.2515 43.4825 33.9734 43.4825 34.8214C43.4825 35.6878 43.7804 36.4212 44.3763 37.0217C44.9722 37.6176 45.6965 37.9155 46.5491 37.9155C47.3879 37.9155 48.0915 37.6199 48.6599 37.0285C49.2329 36.4326 49.5194 35.6969 49.5194 34.8214C49.5194 33.9459 49.2283 33.2171 48.6462 32.6349C48.064 32.0528 47.3375 31.7617 46.4666 31.7617ZM52.3316 30.9916C52.3316 30.9916 52.68 30.9916 53.3767 30.9916C53.3767 30.9916 53.3767 32.1353 53.3767 34.4226C53.3767 34.4226 54.5502 33.279 56.8971 30.9916C56.8971 30.9916 57.3463 30.9916 58.2448 30.9916C58.2448 30.9916 56.9636 32.2338 54.4012 34.7183C54.4012 34.7183 55.6824 36.043 58.2448 38.6925C58.2448 38.6925 57.791 38.6925 56.8834 38.6925C56.8834 38.6925 55.7145 37.4823 53.3767 35.0621C53.3767 35.0621 53.3767 36.2722 53.3767 38.6925C53.3767 38.6925 53.0283 38.6925 52.3316 38.6925C52.3316 38.6925 52.3316 36.1255 52.3316 30.9916ZM65.4368 36.4235C65.4368 36.4235 65.831 36.4235 66.6195 36.4235C66.3994 36.8406 66.1977 37.1684 66.0144 37.4067C65.831 37.6405 65.611 37.8536 65.3543 38.0462C64.6484 38.6008 63.8119 38.8781 62.8447 38.8781C62.0654 38.8781 61.3549 38.7017 60.7132 38.3487C60.0714 37.9912 59.5672 37.503 59.2005 36.8842C58.8338 36.2608 58.6504 35.5732 58.6504 34.8214C58.6504 34.0834 58.8315 33.4073 59.1936 32.7931C59.5603 32.1788 60.06 31.6952 60.6925 31.3423C61.3251 30.9847 62.0196 30.806 62.7759 30.806C63.6468 30.806 64.4238 31.0329 65.1068 31.4867C65.7944 31.9405 66.294 32.5547 66.6057 33.3294H65.4368C65.1389 32.8252 64.7607 32.4378 64.3023 32.1674C63.8439 31.8969 63.3305 31.7617 62.7621 31.7617C61.905 31.7617 61.1807 32.0597 60.5894 32.6556C60.0027 33.2515 59.7093 33.9826 59.7093 34.8489C59.7093 35.7061 60.0073 36.4326 60.6032 37.0285C61.2036 37.6199 61.9371 37.9155 62.8034 37.9155C63.3535 37.9155 63.8279 37.8009 64.2267 37.5717C64.6301 37.3425 65.0334 36.9598 65.4368 36.4235ZM76.8644 35.9628C76.8644 35.9628 77.2494 35.9628 78.0195 35.9628C76.9698 37.9064 75.3838 38.8781 73.2615 38.8781C72.496 38.8781 71.774 38.7406 71.0956 38.4656C70.4172 38.1906 69.8373 37.817 69.356 37.3448C68.8747 36.8681 68.4943 36.2997 68.2146 35.6396C67.935 34.975 67.7952 34.2691 67.7952 33.5219C67.7952 32.4997 68.0267 31.5761 68.4897 30.751C68.9572 29.9213 69.6013 29.2727 70.4218 28.8051C71.2469 28.3376 72.1682 28.1038 73.1858 28.1038C74.263 28.1038 75.2302 28.3628 76.0874 28.8808C76.9446 29.3941 77.5749 30.0978 77.9782 30.9916H76.8094C76.6077 30.6662 76.4197 30.4118 76.2455 30.2284C76.0714 30.0451 75.8605 29.8755 75.613 29.7196C74.9162 29.2796 74.1232 29.0595 73.234 29.0595C72.6197 29.0595 72.0422 29.1741 71.5013 29.4033C70.9604 29.6279 70.4951 29.9373 70.1055 30.3315C69.7204 30.7212 69.4156 31.1887 69.191 31.7342C68.9664 32.2797 68.8541 32.8618 68.8541 33.4806C68.8541 34.0811 68.9687 34.6564 69.1979 35.2065C69.4317 35.7519 69.7456 36.2241 70.1399 36.6229C70.5341 37.0171 71.0016 37.3311 71.5425 37.5649C72.0834 37.7986 72.6518 37.9155 73.2477 37.9155C73.7336 37.9155 74.2034 37.8376 74.6572 37.6817C75.1156 37.5259 75.5236 37.3036 75.8811 37.0148C76.2157 36.7352 76.5435 36.3845 76.8644 35.9628ZM87.233 35.1858C87.233 35.1858 84.9113 35.1858 80.2679 35.1858C80.3091 35.9468 80.6208 36.5931 81.203 37.1248C81.7851 37.6519 82.4727 37.9155 83.2657 37.9155C83.8524 37.9155 84.3933 37.7551 84.8884 37.4342C85.3834 37.1088 85.7387 36.6825 85.9541 36.1553H87.0405C86.7563 36.9667 86.2704 37.6244 85.5828 38.1287C84.8953 38.6283 84.1321 38.8781 83.2932 38.8781C82.734 38.8781 82.2023 38.7727 81.698 38.5618C81.1938 38.351 80.7606 38.0645 80.3985 37.7024C80.0364 37.3402 79.7499 36.9071 79.539 36.4029C79.3282 35.8986 79.2227 35.3669 79.2227 34.8077C79.2227 34.0743 79.3992 33.4004 79.7522 32.7862C80.1051 32.172 80.5864 31.6884 81.1961 31.3354C81.8057 30.9824 82.4773 30.806 83.2107 30.806C83.9716 30.806 84.6707 30.9939 85.3078 31.3698C85.9495 31.7457 86.4377 32.2568 86.7723 32.9031C86.9419 33.2285 87.0611 33.5632 87.1299 33.9069C87.1986 34.2461 87.233 34.6724 87.233 35.1858ZM80.2954 34.2439H86.1948C86.0206 33.4784 85.6653 32.8733 85.129 32.4287C84.5973 31.984 83.9579 31.7617 83.2107 31.7617C82.4819 31.7617 81.8493 31.9909 81.313 32.4493C80.7767 32.9031 80.4375 33.5013 80.2954 34.2439ZM88.6769 30.9916C88.6769 30.9916 89.0253 30.9916 89.7221 30.9916C89.7221 30.9916 89.7221 31.4317 89.7221 32.3118C90.0429 31.8213 90.4601 31.4477 90.9734 31.191C91.4914 30.9343 92.0827 30.806 92.7474 30.806C93.5037 30.806 94.1913 30.9824 94.8101 31.3354C95.4289 31.6884 95.9148 32.1743 96.2678 32.7931C96.6253 33.4073 96.8041 34.0926 96.8041 34.8489C96.8041 35.5961 96.6253 36.2791 96.2678 36.8979C95.9103 37.5121 95.4175 37.9957 94.7895 38.3487C94.1661 38.7017 93.4762 38.8781 92.7199 38.8781C92.0827 38.8781 91.5075 38.7498 90.9941 38.4931C90.4853 38.2318 90.0613 37.8559 89.7221 37.3655V41.3947H88.6769V30.9916ZM92.6649 31.7617C91.8169 31.7617 91.1018 32.0597 90.5196 32.6556C89.9375 33.2515 89.6464 33.9826 89.6464 34.8489C89.6464 35.7153 89.9398 36.4441 90.5265 37.0354C91.1133 37.6222 91.8398 37.9155 92.7061 37.9155C93.5725 37.9155 94.2944 37.6267 94.872 37.0492C95.4542 36.467 95.7452 35.7428 95.7452 34.8764C95.7452 33.9688 95.4542 33.224 94.872 32.6418C94.2944 32.0551 93.5587 31.7617 92.6649 31.7617ZM99.3206 35.1171C99.3206 35.1171 99.3206 35.9949 99.3206 37.7505C99.3206 37.7505 99.9807 37.7505 101.301 37.7505C101.704 37.7505 102.055 37.707 102.353 37.6199C102.651 37.5328 102.891 37.3861 103.075 37.1798C103.263 36.9735 103.357 36.7123 103.357 36.396C103.357 35.5434 102.671 35.1171 101.301 35.1171H99.3206ZM104.024 33.02C104.024 33.3913 103.911 33.7121 103.687 33.9826C103.467 34.253 103.231 34.4433 102.978 34.5533C103.936 34.9016 104.415 35.5159 104.415 36.396C104.415 37.056 104.15 37.6038 103.618 38.0393C103.091 38.4748 102.408 38.6925 101.569 38.6925H98.2755V30.9916H101.363C102.188 30.9916 102.836 31.1704 103.308 31.5279C103.785 31.8809 104.024 32.3782 104.024 33.02ZM103.02 33.02C103.02 32.2957 102.41 31.9336 101.191 31.9336H99.3206C99.3206 31.9336 99.3206 32.6808 99.3206 34.1751C99.3206 34.1751 99.944 34.1751 101.191 34.1751C101.755 34.1751 102.199 34.0788 102.525 33.8863C102.855 33.6938 103.02 33.405 103.02 33.02ZM111.546 30.9916C111.546 30.9916 111.892 30.9916 112.584 30.9916C112.584 30.9916 112.584 33.5586 112.584 38.6925C112.584 38.6925 112.238 38.6925 111.546 38.6925C111.546 38.6925 111.546 36.6183 111.546 32.4699C111.546 32.4699 109.983 34.5441 106.856 38.6925C106.856 38.6925 106.508 38.6925 105.811 38.6925C105.811 38.6925 105.811 36.1255 105.811 30.9916C105.811 30.9916 106.16 30.9916 106.856 30.9916C106.856 30.9916 106.856 33.0658 106.856 37.2142C106.856 37.2142 108.419 35.14 111.546 30.9916ZM120.855 36.4235C120.855 36.4235 121.25 36.4235 122.038 36.4235C121.818 36.8406 121.616 37.1684 121.433 37.4067C121.25 37.6405 121.03 37.8536 120.773 38.0462C120.067 38.6008 119.23 38.8781 118.263 38.8781C117.484 38.8781 116.774 38.7017 116.132 38.3487C115.49 37.9912 114.986 37.503 114.619 36.8842C114.252 36.2608 114.069 35.5732 114.069 34.8214C114.069 34.0834 114.25 33.4073 114.612 32.7931C114.979 32.1788 115.479 31.6952 116.111 31.3423C116.744 30.9847 117.438 30.806 118.195 30.806C119.065 30.806 119.842 31.0329 120.525 31.4867C121.213 31.9405 121.713 32.5547 122.024 33.3294H120.855C120.558 32.8252 120.179 32.4378 119.721 32.1674C119.263 31.8969 118.749 31.7617 118.181 31.7617C117.324 31.7617 116.599 32.0597 116.008 32.6556C115.421 33.2515 115.128 33.9826 115.128 34.8489C115.128 35.7061 115.426 36.4326 116.022 37.0285C116.622 37.6199 117.356 37.9155 118.222 37.9155C118.772 37.9155 119.247 37.8009 119.645 37.5717C120.049 37.3425 120.452 36.9598 120.855 36.4235Z" fill="white"/>
</g>
<defs>
<clipPath id="clip0_13_506">
<rect width="123" height="42" fill="white"/>
</clipPath>
</defs>
</svg>
