<svg width="1920" height="1080" viewBox="0 0 1920 1080" fill="none" xmlns="http://www.w3.org/2000/svg">
<g clip-path="url(#clip0_14_511)">
<rect width="1920" height="1080" fill="white"/>
<g filter="url(#filter0_f_14_511)">
<path fill-rule="evenodd" clip-rule="evenodd" d="M1887.04 578.312C1938.09 582.762 1980.66 611.583 2018.39 646.284C2058.38 683.062 2098.77 723.636 2103.89 777.749C2109.42 836.135 2094.96 904.678 2045.88 936.723C1999.51 967.003 1942.39 920.88 1887.04 919.346C1834.89 917.9 1778.96 958.837 1736.76 928.153C1692.82 896.209 1693.36 832.092 1692.28 777.749C1691.16 721.907 1691.61 661.145 1730.62 621.201C1769.9 580.976 1831.05 573.432 1887.04 578.312Z" fill="#4A3AFF"/>
</g>
<path d="M285.274 748C285.274 748 285.274 743.567 285.274 734.702C285.274 734.702 286.373 734.702 288.57 734.702C289.479 734.702 290.19 734.752 290.706 734.852C291.228 734.951 291.688 735.127 292.086 735.379C292.625 735.73 293.041 736.202 293.334 736.794C293.627 737.386 293.773 738.054 293.773 738.798C293.773 739.589 293.606 740.307 293.272 740.951C292.944 741.596 292.493 742.079 291.919 742.401C291.556 742.601 291.125 742.741 290.627 742.823C290.129 742.905 289.432 742.946 288.535 742.946H287.744V748H285.274ZM287.744 740.582H288.465C289.215 740.582 289.777 740.523 290.152 740.406C290.504 740.307 290.779 740.119 290.979 739.844C291.184 739.568 291.286 739.24 291.286 738.859C291.286 738.438 291.184 738.077 290.979 737.778C290.773 737.479 290.492 737.28 290.135 737.181C289.783 737.099 289.262 737.058 288.57 737.058H287.744V740.582ZM305.322 738.024C305.322 738.024 305.322 741.35 305.322 748C305.322 748 304.592 748 303.133 748C303.133 748 303.133 747.569 303.133 746.708C302.653 747.253 302.155 747.646 301.639 747.886C301.13 748.12 300.523 748.237 299.82 748.237C298.859 748.237 297.995 748.018 297.227 747.578C296.465 747.133 295.868 746.515 295.434 745.724C295.006 744.933 294.793 744.042 294.793 743.052C294.793 742.05 295.009 741.15 295.443 740.354C295.877 739.551 296.48 738.924 297.254 738.473C298.027 738.021 298.9 737.796 299.873 737.796C300.593 737.796 301.214 737.922 301.736 738.174C302.257 738.42 302.723 738.815 303.133 739.36V738.024H305.322ZM300.084 739.993C299.252 739.993 298.563 740.286 298.018 740.872C297.479 741.458 297.21 742.202 297.21 743.104C297.21 743.978 297.482 744.687 298.027 745.231C298.578 745.771 299.29 746.04 300.163 746.04C301.03 746.04 301.727 745.765 302.255 745.214C302.788 744.663 303.054 743.942 303.054 743.052C303.054 742.149 302.776 741.414 302.219 740.846C301.669 740.277 300.957 739.993 300.084 739.993ZM314.743 744.722C314.743 744.722 315.643 744.722 317.442 744.722C317.026 745.841 316.387 746.708 315.526 747.323C314.67 747.933 313.659 748.237 312.493 748.237C311.767 748.237 311.073 748.1 310.41 747.824C309.754 747.549 309.189 747.18 308.714 746.717C308.24 746.254 307.862 745.7 307.58 745.056C307.299 744.411 307.158 743.731 307.158 743.017C307.158 742.056 307.39 741.177 307.853 740.38C308.316 739.577 308.949 738.947 309.751 738.49C310.56 738.027 311.448 737.796 312.414 737.796C313.129 737.796 313.809 737.925 314.453 738.183C315.104 738.435 315.672 738.798 316.158 739.272C316.475 739.583 316.724 739.888 316.906 740.187C317.093 740.479 317.272 740.869 317.442 741.355H314.743C314.275 740.447 313.498 739.993 312.414 739.993C311.582 739.993 310.9 740.274 310.366 740.837C309.839 741.394 309.575 742.114 309.575 742.999C309.575 743.872 309.851 744.599 310.402 745.179C310.958 745.753 311.65 746.04 312.476 746.04C312.968 746.04 313.393 745.935 313.75 745.724C314.114 745.513 314.445 745.179 314.743 744.722ZM326.353 744.722C326.353 744.722 327.253 744.722 329.052 744.722C328.636 745.841 327.997 746.708 327.136 747.323C326.28 747.933 325.269 748.237 324.103 748.237C323.377 748.237 322.683 748.1 322.02 747.824C321.364 747.549 320.799 747.18 320.324 746.717C319.85 746.254 319.472 745.7 319.19 745.056C318.909 744.411 318.768 743.731 318.768 743.017C318.768 742.056 319 741.177 319.463 740.38C319.926 739.577 320.559 738.947 321.361 738.49C322.17 738.027 323.058 737.796 324.024 737.796C324.739 737.796 325.419 737.925 326.063 738.183C326.714 738.435 327.282 738.798 327.768 739.272C328.085 739.583 328.334 739.888 328.516 740.187C328.703 740.479 328.882 740.869 329.052 741.355H326.353C325.885 740.447 325.108 739.993 324.024 739.993C323.192 739.993 322.51 740.274 321.976 740.837C321.449 741.394 321.185 742.114 321.185 742.999C321.185 743.872 321.461 744.599 322.012 745.179C322.568 745.753 323.26 746.04 324.086 746.04C324.578 746.04 325.003 745.935 325.36 745.724C325.724 745.513 326.055 745.179 326.353 744.722ZM338.517 738.024V748H336.127V744.414C335.289 744.572 334.556 744.651 333.929 744.651C332.857 744.651 332.019 744.326 331.416 743.676C330.812 743.02 330.51 742.103 330.51 740.925V738.024H332.901V740.925C332.901 741.528 333.015 741.938 333.244 742.155C333.472 742.366 333.909 742.472 334.553 742.472C335.104 742.472 335.628 742.419 336.127 742.313V738.024H338.517ZM347.666 738.024C347.666 738.024 348.475 738.024 350.092 738.024C350.092 738.024 350.092 741.35 350.092 748C350.092 748 349.301 748 347.719 748C347.719 748 347.719 745.803 347.719 741.408C347.719 741.408 346.231 743.605 343.254 748C343.254 748 342.446 748 340.828 748C340.828 748 340.828 744.675 340.828 738.024C340.828 738.024 341.619 738.024 343.201 738.024C343.201 738.024 343.201 740.222 343.201 744.616C343.201 744.616 344.69 742.419 347.666 738.024ZM358.793 740.204C358.793 740.204 358.016 740.204 356.464 740.204C356.464 740.204 356.464 742.803 356.464 748C356.464 748 355.667 748 354.073 748C354.073 748 354.073 745.401 354.073 740.204C354.073 740.204 353.3 740.204 351.753 740.204C351.753 740.204 351.753 739.478 351.753 738.024C351.753 738.024 354.099 738.024 358.793 738.024C358.793 738.024 358.793 738.751 358.793 740.204ZM370.271 738.024C370.271 738.024 370.271 741.35 370.271 748C370.271 748 369.541 748 368.082 748C368.082 748 368.082 747.569 368.082 746.708C367.602 747.253 367.104 747.646 366.588 747.886C366.079 748.12 365.472 748.237 364.769 748.237C363.808 748.237 362.944 748.018 362.176 747.578C361.415 747.133 360.817 746.515 360.383 745.724C359.956 744.933 359.742 744.042 359.742 743.052C359.742 742.05 359.958 741.15 360.392 740.354C360.826 739.551 361.429 738.924 362.203 738.473C362.976 738.021 363.849 737.796 364.822 737.796C365.542 737.796 366.164 737.922 366.685 738.174C367.207 738.42 367.672 738.815 368.082 739.36V738.024H370.271ZM365.033 739.993C364.201 739.993 363.512 740.286 362.967 740.872C362.428 741.458 362.159 742.202 362.159 743.104C362.159 743.978 362.431 744.687 362.976 745.231C363.527 745.771 364.239 746.04 365.112 746.04C365.979 746.04 366.676 745.765 367.204 745.214C367.737 744.663 368.003 743.942 368.003 743.052C368.003 742.149 367.725 741.414 367.168 740.846C366.618 740.277 365.906 739.993 365.033 739.993ZM378.972 740.204C378.972 740.204 378.195 740.204 376.643 740.204C376.643 740.204 376.643 742.803 376.643 748C376.643 748 375.846 748 374.252 748C374.252 748 374.252 745.401 374.252 740.204C374.252 740.204 373.479 740.204 371.932 740.204C371.932 740.204 371.932 739.478 371.932 738.024C371.932 738.024 374.278 738.024 378.972 738.024C378.972 738.024 378.972 738.751 378.972 740.204ZM383.014 743.623C383.014 743.623 383.014 744.355 383.014 745.82C383.014 745.82 383.627 745.82 384.851 745.82C385.209 745.82 385.499 745.718 385.721 745.513C385.944 745.308 386.055 745.044 386.055 744.722C386.055 744.399 385.944 744.136 385.721 743.931C385.499 743.726 385.209 743.623 384.851 743.623H383.014ZM385.01 741.452C386.023 741.452 386.852 741.771 387.497 742.41C388.147 743.043 388.472 743.813 388.472 744.722C388.472 745.63 388.147 746.403 387.497 747.042C386.852 747.681 386.023 748 385.01 748H380.624C380.624 748 380.624 744.675 380.624 738.024C380.624 738.024 381.421 738.024 383.014 738.024C383.014 738.024 383.014 739.167 383.014 741.452C383.014 741.452 383.679 741.452 385.01 741.452ZM402.71 744.722C402.71 744.722 403.609 744.722 405.408 744.722C404.992 745.841 404.354 746.708 403.492 747.323C402.637 747.933 401.626 748.237 400.46 748.237C399.733 748.237 399.039 748.1 398.377 747.824C397.721 747.549 397.155 747.18 396.681 746.717C396.206 746.254 395.828 745.7 395.547 745.056C395.266 744.411 395.125 743.731 395.125 743.017C395.125 742.056 395.356 741.177 395.819 740.38C396.282 739.577 396.915 738.947 397.718 738.49C398.526 738.027 399.414 737.796 400.381 737.796C401.096 737.796 401.775 737.925 402.42 738.183C403.07 738.435 403.639 738.798 404.125 739.272C404.441 739.583 404.69 739.888 404.872 740.187C405.06 740.479 405.238 740.869 405.408 741.355H402.71C402.241 740.447 401.465 739.993 400.381 739.993C399.549 739.993 398.866 740.274 398.333 740.837C397.806 741.394 397.542 742.114 397.542 742.999C397.542 743.872 397.817 744.599 398.368 745.179C398.925 745.753 399.616 746.04 400.442 746.04C400.935 746.04 401.359 745.935 401.717 745.724C402.08 745.513 402.411 745.179 402.71 744.722ZM413.599 740.204C413.599 740.204 412.823 740.204 411.27 740.204C411.27 740.204 411.27 742.803 411.27 748C411.27 748 410.473 748 408.88 748C408.88 748 408.88 745.401 408.88 740.204C408.88 740.204 408.106 740.204 406.559 740.204C406.559 740.204 406.559 739.478 406.559 738.024C406.559 738.024 408.906 738.024 413.599 738.024C413.599 738.024 413.599 738.751 413.599 740.204ZM419.901 737.796C420.85 737.796 421.729 738.03 422.537 738.499C423.346 738.968 423.985 739.606 424.453 740.415C424.922 741.218 425.157 742.091 425.157 743.034C425.157 743.972 424.919 744.842 424.445 745.645C423.976 746.441 423.334 747.074 422.52 747.543C421.705 748.006 420.821 748.237 419.866 748.237C418.905 748.237 418.014 748.006 417.194 747.543C416.379 747.074 415.735 746.441 415.26 745.645C414.785 744.842 414.548 743.972 414.548 743.034C414.548 742.319 414.686 741.64 414.961 740.995C415.242 740.345 415.62 739.788 416.095 739.325C416.576 738.856 417.147 738.484 417.809 738.209C418.471 737.934 419.168 737.796 419.901 737.796ZM419.804 739.993C419.031 739.993 418.363 740.292 417.8 740.89C417.243 741.481 416.965 742.19 416.965 743.017C416.965 743.849 417.246 744.561 417.809 745.152C418.371 745.744 419.048 746.04 419.839 746.04C420.636 746.04 421.319 745.747 421.887 745.161C422.455 744.569 422.74 743.86 422.74 743.034C422.74 742.179 422.455 741.458 421.887 740.872C421.319 740.286 420.624 739.993 419.804 739.993ZM433.822 738.024C433.822 738.024 434.631 738.024 436.248 738.024C436.248 738.024 436.248 741.35 436.248 748C436.248 748 435.457 748 433.875 748C433.875 748 433.875 745.803 433.875 741.408C433.875 741.408 432.387 743.605 429.41 748C429.41 748 428.602 748 426.984 748C426.984 748 426.984 744.675 426.984 738.024C426.984 738.024 427.775 738.024 429.357 738.024C429.357 738.024 429.357 740.222 429.357 744.616C429.357 744.616 430.846 742.419 433.822 738.024ZM445.002 745.926C445.002 745.926 444.533 745.926 443.595 745.926C443.595 745.926 442.713 744.42 440.95 741.408C440.95 741.408 440.95 743.605 440.95 748C440.95 748 440.153 748 438.559 748C438.559 748 438.559 744.675 438.559 738.024C438.559 738.024 439.47 738.024 441.293 738.024C441.293 738.024 442.295 739.729 444.298 743.14C444.298 743.14 445.3 741.435 447.304 738.024C447.304 738.024 448.215 738.024 450.038 738.024C450.038 738.024 450.038 741.35 450.038 748C450.038 748 449.241 748 447.647 748C447.647 748 447.647 745.803 447.647 741.408C447.647 741.408 446.765 742.914 445.002 745.926ZM457.227 737.796C458.176 737.796 459.055 738.03 459.864 738.499C460.672 738.968 461.311 739.606 461.78 740.415C462.248 741.218 462.483 742.091 462.483 743.034C462.483 743.972 462.245 744.842 461.771 745.645C461.302 746.441 460.66 747.074 459.846 747.543C459.031 748.006 458.147 748.237 457.192 748.237C456.231 748.237 455.34 748.006 454.52 747.543C453.705 747.074 453.061 746.441 452.586 745.645C452.112 744.842 451.874 743.972 451.874 743.034C451.874 742.319 452.012 741.64 452.287 740.995C452.569 740.345 452.947 739.788 453.421 739.325C453.902 738.856 454.473 738.484 455.135 738.209C455.797 737.934 456.494 737.796 457.227 737.796ZM457.13 739.993C456.357 739.993 455.689 740.292 455.126 740.89C454.57 741.481 454.291 742.19 454.291 743.017C454.291 743.849 454.572 744.561 455.135 745.152C455.697 745.744 456.374 746.04 457.165 746.04C457.962 746.04 458.645 745.747 459.213 745.161C459.781 744.569 460.066 743.86 460.066 743.034C460.066 742.179 459.781 741.458 459.213 740.872C458.645 740.286 457.95 739.993 457.13 739.993ZM471.421 744.722C471.421 744.722 472.32 744.722 474.119 744.722C473.703 745.841 473.064 746.708 472.203 747.323C471.348 747.933 470.337 748.237 469.171 748.237C468.444 748.237 467.75 748.1 467.088 747.824C466.432 747.549 465.866 747.18 465.391 746.717C464.917 746.254 464.539 745.7 464.258 745.056C463.976 744.411 463.836 743.731 463.836 743.017C463.836 742.056 464.067 741.177 464.53 740.38C464.993 739.577 465.626 738.947 466.429 738.49C467.237 738.027 468.125 737.796 469.092 737.796C469.807 737.796 470.486 737.925 471.131 738.183C471.781 738.435 472.349 738.798 472.836 739.272C473.152 739.583 473.401 739.888 473.583 740.187C473.77 740.479 473.949 740.869 474.119 741.355H471.421C470.952 740.447 470.176 739.993 469.092 739.993C468.26 739.993 467.577 740.274 467.044 740.837C466.516 741.394 466.253 742.114 466.253 742.999C466.253 743.872 466.528 744.599 467.079 745.179C467.636 745.753 468.327 746.04 469.153 746.04C469.645 746.04 470.07 745.935 470.428 745.724C470.791 745.513 471.122 745.179 471.421 744.722ZM482.31 740.204C482.31 740.204 481.534 740.204 479.981 740.204C479.981 740.204 479.981 742.803 479.981 748C479.981 748 479.184 748 477.59 748C477.59 748 477.59 745.401 477.59 740.204C477.59 740.204 476.817 740.204 475.27 740.204C475.27 740.204 475.27 739.478 475.27 738.024C475.27 738.024 477.617 738.024 482.31 738.024C482.31 738.024 482.31 738.751 482.31 740.204ZM486.353 743.623C486.353 743.623 486.353 744.355 486.353 745.82C486.353 745.82 486.965 745.82 488.19 745.82C488.547 745.82 488.837 745.718 489.06 745.513C489.282 745.308 489.394 745.044 489.394 744.722C489.394 744.399 489.282 744.136 489.06 743.931C488.837 743.726 488.547 743.623 488.19 743.623H486.353ZM488.348 741.452C489.361 741.452 490.191 741.771 490.835 742.41C491.486 743.043 491.811 743.813 491.811 744.722C491.811 745.63 491.486 746.403 490.835 747.042C490.191 747.681 489.361 748 488.348 748H483.962C483.962 748 483.962 744.675 483.962 738.024C483.962 738.024 484.759 738.024 486.353 738.024C486.353 738.024 486.353 739.167 486.353 741.452C486.353 741.452 487.018 741.452 488.348 741.452Z" fill="white"/>
<g filter="url(#filter1_f_14_511)">
<path fill-rule="evenodd" clip-rule="evenodd" d="M95.6482 105.249C143.978 109.482 184.287 136.901 220.008 169.913C257.867 204.902 296.101 243.503 300.949 294.983C306.18 350.528 292.492 415.737 246.029 446.223C202.126 475.03 148.049 431.151 95.6482 429.691C46.2815 428.316 -6.66999 467.261 -46.6261 438.07C-88.2246 407.679 -87.7101 346.682 -88.7391 294.983C-89.7965 241.857 -89.3681 184.051 -52.4384 146.051C-15.249 107.783 42.6426 100.606 95.6482 105.249Z" fill="#4A3AFF"/>
</g>
</g>
<defs>
<filter id="filter0_f_14_511" x="842" y="-273" width="2113" height="2070" filterUnits="userSpaceOnUse" color-interpolation-filters="sRGB">
<feFlood flood-opacity="0" result="BackgroundImageFix"/>
<feBlend mode="normal" in="SourceGraphic" in2="BackgroundImageFix" result="shape"/>
<feGaussianBlur stdDeviation="425" result="effect1_foregroundBlur_14_511"/>
</filter>
<filter id="filter1_f_14_511" x="-939" y="-746" width="2091" height="2052" filterUnits="userSpaceOnUse" color-interpolation-filters="sRGB">
<feFlood flood-opacity="0" result="BackgroundImageFix"/>
<feBlend mode="normal" in="SourceGraphic" in2="BackgroundImageFix" result="shape"/>
<feGaussianBlur stdDeviation="425" result="effect1_foregroundBlur_14_511"/>
</filter>
<clipPath id="clip0_14_511">
<rect width="1920" height="1080" fill="white"/>
</clipPath>
</defs>
</svg>
